<?xml version="1.0" encoding="UTF-8"?>
<svg width="14px" height="14px" viewBox="0 0 14 14" version="1.1" xmlns="http://www.w3.org/2000/svg" xmlns:xlink="http://www.w3.org/1999/xlink">
    <!-- Generator: Sketch 49.1 (51147) - http://www.bohemiancoding.com/sketch -->
    <title>Group</title>
    <desc>Created with Sketch.</desc>
    <defs>
        <path d="M7.70491803,3.48356808 L7.70491803,6.30985915 L10.4918033,6.30985915 L10.4918033,7.69014085 L7.70491803,7.69014085 L7.70491803,10.5164319 L6.29508197,10.5164319 L6.29508197,7.69014085 L3.50819672,7.69014085 L3.50819672,6.30985915 L6.29508197,6.30985915 L6.29508197,3.48356808 L7.70491803,3.48356808 Z M6.98360656,0 C8.90711344,0 10.5573702,0.68465669 11.9344262,2.05399061 C13.3114823,3.42332453 14,5.07197784 14,7 C14,8.92802216 13.3114823,10.5766755 11.9344262,11.9460094 C10.5573702,13.3153433 8.90711344,14 6.98360656,14 C5.06009967,14 3.41530738,13.3153433 2.04918033,11.9460094 C0.683053279,10.5766755 0,8.92802216 0,7 C0,5.07197784 0.683053279,3.42332453 2.04918033,2.05399061 C3.41530738,0.68465669 5.06009967,0 6.98360656,0 Z M7,12.6197183 C8.54099131,12.6197183 9.85791803,12.071993 10.9508197,10.9765258 C12.0437213,9.88105869 12.5901639,8.55556333 12.5901639,7 C12.5901639,5.44443667 12.0437213,4.11894131 10.9508197,3.02347418 C9.85791803,1.92800704 8.54099131,1.38028169 7,1.38028169 C5.45900869,1.38028169 4.14208197,1.92800704 3.04918033,3.02347418 C1.95627869,4.11894131 1.40983607,5.44443667 1.40983607,7 C1.40983607,8.55556333 1.95627869,9.88105869 3.04918033,10.9765258 C4.14208197,12.071993 5.45900869,12.6197183 7,12.6197183 Z" id="path-1"></path>
    </defs>
    <g id="ECAs-&amp;-FieldTrips" stroke="none" stroke-width="1" fill="none" fill-rule="evenodd">
        <g id="ECA/Timetable" transform="translate(-234.000000, -220.000000)">
            <g id="Group-14" transform="translate(221.000000, 211.000000)">
                <g id="Group" transform="translate(13.000000, 9.000000)">
                    <mask id="mask-2" fill="white">
                        <use xlink:href="#path-1"></use>
                    </mask>
                    <use id="Mask" fill="#333333" xlink:href="#path-1"></use>
                    <g id="🎨icon-color/white" mask="url(#mask-2)" fill="#FFFFFF">
                        <g transform="translate(-29.000000, -29.000000)" id="Icon-Shade">
                            <rect x="0" y="0" width="72" height="72"></rect>
                        </g>
                    </g>
                </g>
            </g>
        </g>
    </g>
</svg>