<?xml version="1.0" encoding="UTF-8"?>
<svg width="17px" height="17px" viewBox="0 0 17 17" version="1.1" xmlns="http://www.w3.org/2000/svg" xmlns:xlink="http://www.w3.org/1999/xlink">
    <!-- Generator: Sketch 49.1 (51147) - http://www.bohemiancoding.com/sketch -->
    <title>Star</title>
    <desc>Created with Sketch.</desc>
    <defs></defs>
    <g id="ECAs-&amp;-FieldTrips" stroke="none" stroke-width="1" fill="none" fill-rule="evenodd">
        <g id="ECA/Dashboard" transform="translate(-1069.000000, -221.000000)" fill="#B7C33B">
            <g id="Group-9-Copy-5" transform="translate(1030.000000, 163.000000)">
                <path d="M47.3564356,72.0655754 L43.3325976,74.5485859 C42.8625947,74.838613 42.2464686,74.6927138 41.9564415,74.2227109 C41.8166047,73.9960985 41.7729247,73.7230723 41.8350826,73.4641438 L42.9439805,68.8448579 L39.3391996,65.7582632 C38.9196887,65.399057 38.8708022,64.7677821 39.2300085,64.3482712 C39.4023753,64.1469671 39.6476011,64.022316 39.9118145,64.0017016 L44.6293884,63.6336276 L46.4315394,59.2498389 C46.641529,58.7390328 47.2258492,58.4951729 47.7366553,58.7051624 C47.9836619,58.8067054 48.1797888,59.0028323 48.2813319,59.2498389 L50.0834829,63.6336276 L54.8010568,64.0017016 C55.3516682,64.0446613 55.7632011,64.5258458 55.7202414,65.0764572 C55.699627,65.3406706 55.5749759,65.5858964 55.3736717,65.7582632 L51.7688908,68.8448579 L52.8777887,73.4641438 C53.0067066,74.0011714 52.6758683,74.5410269 52.1388408,74.6699448 C51.8799123,74.7321027 51.6068861,74.6884228 51.3802737,74.5485859 L47.3564356,72.0655754 Z" id="Star"></path>
            </g>
        </g>
    </g>
</svg>